<svg xmlns="http://www.w3.org/2000/svg" version="1.1" xmlns:xlink="http://www.w3.org/1999/xlink" xmlns:svgjs="http://svgjs.com/svgjs" width="1440" height="560" preserveAspectRatio="none" viewBox="0 0 1440 560"><g mask="url(&quot;#SvgjsMask5796&quot;)" fill="none"><rect width="1440" height="560" x="0" y="0" fill="url(#SvgjsLinearGradient5797)"></rect><path d="M0 23.33C2.75 7.59 8.64 2.64 24.5 0C78.64 -9.02 82.25 0 140 0C188.13 0 236.25 -21.84 236.25 0C236.25 33.16 188.64 55.47 140 110C126.2 125.47 111.36 124.55 111.36 140C111.36 156.57 119.87 172.7 140 174.05C204.19 178.35 211.66 166.4 280 151.29C288.66 149.37 288.32 146.95 294 140C350.09 71.31 345.87 64.06 403.53 0C408.87 -5.94 411.76 0 420 0C426.09 0 427.1 -3.23 432.17 0C497.1 41.32 505.04 89.09 560 89.09C597.22 89.09 577.45 24.87 616.54 0C647.45 -19.67 658.27 0 700 0C765.76 0 769.27 -6.23 831.52 0C839.27 0.77 835.71 14 840 14C844.33 14 840.93 0.78 848.75 0C910.93 -6.22 914.38 0 980 0C1050 0 1050 0 1120 0C1190 0 1190 0 1260 0C1330 0 1330 0 1400 0C1449.41 0 1454.05 -11.99 1498.82 0C1524.05 6.76 1532.75 12.86 1540 37.5C1553.34 82.86 1540 88.75 1540 140C1540 210 1540 210 1540 280C1540 350 1540 350 1540 420C1540 490 1575 525 1540 560C1505 595 1470 560 1400 560C1330 560 1330 560 1260 560C1190 560 1190 560 1120 560C1050 560 1050 560 980 560C910 560 910 560 840 560C770 560 770 560 700 560C630 560 630 560 560 560C490 560 490 560 420 560C350 560 350 560 280 560C210 560 210 560 140 560C70 560 35 595 0 560C-35 525 0 490 0 420C0 371 -8.25 368.75 0 322C4.1 298.75 24.71 298.84 24.71 280C24.71 267.59 2.62 274.33 0 259.51C-9.74 204.33 0 199.75 0 140C0 81.66 -9.5 77.59 0 23.33" stroke="rgba(80, 49, 129, 0.34)" stroke-width="2"></path><path d="M980 79.25C944.87 79.25 902.93 101.11 901.46 140C899.14 201.48 959.25 206.38 972.43 280C984.32 346.38 949.21 351.28 951.59 420C952.99 460.48 959.86 498.4 980 498.4C1003.76 498.4 1036.96 463.64 1039.39 420C1043.04 354.44 995.73 350.93 992.17 280C988.71 210.93 1029.34 205.74 1025.35 140C1023.25 105.36 1006.82 79.25 980 79.25" stroke="rgba(80, 49, 129, 0.34)" stroke-width="2"></path><path d="M700 243.41C672.24 243.41 644.48 261.78 644.48 280C644.48 298.16 672.24 316.18 700 316.18C727.76 316.18 755.52 298.16 755.52 280C755.52 261.78 727.76 243.41 700 243.41" stroke="rgba(80, 49, 129, 0.34)" stroke-width="2"></path><path d="M1400 182C1361.92 182 1324.16 227.24 1322.63 280C1320.71 346.24 1360.13 349.14 1393.11 420C1398.82 432.27 1396.7 446.25 1400 446.25C1403.28 446.25 1400.83 432.31 1406.27 420C1437.58 349.18 1475.25 346.53 1473.5 280C1472.12 227.53 1437.36 182 1400 182" stroke="rgba(80, 49, 129, 0.34)" stroke-width="2"></path><path d="M280 404.69C263.66 406.78 250.3 406.98 250.3 420C250.3 449.63 250.28 480.7 280 490C335.13 507.25 358.03 496.51 420 473.1C450.67 461.51 465.29 441.75 465.29 420C465.29 404.35 444.44 400.33 420 398.31C351.79 392.67 348.51 395.93 280 404.69" stroke="rgba(80, 49, 129, 0.34)" stroke-width="2"></path><path d="M0 106.67C9.23 106.67 31.82 123.24 31.82 140C31.82 156.98 9.19 174.15 0 174.15C-6.72 174.15 0 157.07 0 140C0 123.34 -6.68 106.67 0 106.67" stroke="rgba(80, 49, 129, 0.34)" stroke-width="2"></path><path d="M140 26.67C126.61 26.67 112 7.73 112 0C112 -5.6 126 0 140 0C151.67 0 163.33 -5.29 163.33 0C163.33 8.04 152.27 26.67 140 26.67" stroke="rgba(80, 49, 129, 0.34)" stroke-width="2"></path><path d="M364 140C395.02 110.56 388.64 74.88 420 74.88C459.06 74.88 468.04 102.07 504.85 140C538.04 174.2 536.39 177.44 560 219.13C576.03 247.44 561.65 258.09 584.14 280C631.65 326.28 642.07 355.51 700 355.51C757.93 355.51 772.66 328.71 815.86 280C842.66 249.78 824.93 197.65 840 197.65C855.92 197.65 865.98 236.67 877.84 280C896.41 347.84 890.16 349.88 900.87 420C911.54 489.88 939.99 515.42 920.61 560C909.56 585.42 880.31 560 840 560C770 560 770 560 700 560C630 560 630 560 560 560C502.25 560 444.5 586.21 444.5 560C444.5 520.21 502.38 494.11 560 428C563.39 424.11 566.51 424.68 566.51 420C566.51 409.01 570.31 401.67 560 396.67C497.05 366.17 491.92 361 420 349.01C351.92 337.66 345.94 333.02 280 350C208.06 368.52 205.98 380.31 144.24 420C135.98 425.31 143.73 440 140 440C135.78 440 129.21 431.35 128.33 420C123.03 351.35 122.44 347.58 127.65 280C128.27 271.9 132.46 272.23 140 268.65C208.63 236.1 214.38 245.43 280 207.74C326.38 181.1 325.02 176.99 364 140" stroke="rgba(80, 49, 129, 0.34)" stroke-width="2"></path><path d="M594.34 140C589.71 81.56 635.7 63.8 683.85 0C688.53 -6.2 691.92 0 700 0C712.72 0 717.63 -9.19 725.45 0C777.21 60.81 826.21 83.49 819.15 140C813.49 185.31 758.75 203.64 700 203.64C646.35 203.64 597.78 183.38 594.34 140" stroke="rgba(80, 49, 129, 0.34)" stroke-width="2"></path><path d="M980 13.21C968.12 13.21 958.13 3.56 958.13 0C958.13 -3.05 969.07 0 980 0C1005 0 1030 -3.25 1030 0C1030 3.36 1004.05 13.21 980 13.21" stroke="rgba(80, 49, 129, 0.34)" stroke-width="2"></path><path d="M1074.65 140C1074.65 89 1090.97 39.37 1120 39.37C1153.89 39.37 1200.5 88.05 1200.5 140C1200.5 198 1153.35 259.26 1120 259.26C1090.43 259.26 1074.65 198.95 1074.65 140" stroke="rgba(80, 49, 129, 0.34)" stroke-width="2"></path><path d="M1400 57.04C1340.36 57.04 1260 14.81 1260 0C1260 -13.71 1330 0 1400 0C1415.1 0 1430.2 -9.09 1430.2 0C1430.2 19.43 1425.46 57.04 1400 57.04" stroke="rgba(80, 49, 129, 0.34)" stroke-width="2"></path><path d="M1470 140C1470 112 1516.61 100 1540 100C1551.61 100 1540 120 1540 140C1540 190.91 1555.81 241.82 1540 241.82C1520.81 241.82 1470 182.91 1470 140" stroke="rgba(80, 49, 129, 0.34)" stroke-width="2"></path><path d="M1141.54 420C1194.8 359.38 1206.95 307.32 1260 307.32C1304.05 307.32 1309.57 358.6 1335.74 420C1363.42 484.94 1389.33 520 1367.69 560C1351.46 590 1313.85 560 1260 560C1190 560 1190 560 1120 560C1087.69 560 1055.38 576.93 1055.38 560C1055.38 530.26 1090.35 514.85 1120 466.67C1133.43 444.85 1124.8 439.06 1141.54 420" stroke="rgba(80, 49, 129, 0.34)" stroke-width="2"></path><path d="M1458.51 420C1458.51 360.35 1517.74 298.67 1540 298.67C1558.48 298.67 1540 359.34 1540 420C1540 474.6 1558.13 529.2 1540 529.2C1517.38 529.2 1458.51 475.61 1458.51 420" stroke="rgba(80, 49, 129, 0.34)" stroke-width="2"></path><path d="M660.38 140C660.38 113.74 679.33 78.24 700 78.24C721.48 78.24 744.68 114.28 744.68 140C744.68 157.09 722.03 163.86 700 163.86C679.88 163.86 660.38 156.55 660.38 140" stroke="rgba(80, 49, 129, 0.34)" stroke-width="2"></path><path d="M246.21 280C246.21 272.2 263.57 273.01 280 264.19C350.47 226.35 361.67 181.97 420 186.67C459.67 189.87 476 243.43 476 280C476 299.95 449.17 297.44 420 299.72C351.17 305.1 348.7 303.11 280 295.31C261.81 293.25 246.21 287.76 246.21 280" stroke="rgba(80, 49, 129, 0.34)" stroke-width="2"></path><path d="M647.91 420C668.46 400.46 671.97 399.94 700 394.83C768.01 382.44 780.4 375.01 840 385C855.47 387.59 850.14 402.19 850.14 420C850.14 451.51 848.43 452.69 840 483.64C829.36 522.69 841.45 543.94 812 560C771.45 582.12 756 560 700 560C630 560 630 560 560 560C546 560 532 566.35 532 560C532 550.35 546.44 544.37 560 528C604.4 474.37 598.46 467.04 647.91 420" stroke="rgba(80, 49, 129, 0.34)" stroke-width="2"></path><path d="M1231.28 420C1239.23 402.27 1247.14 392.68 1260 392.68C1270.68 392.68 1274.55 404.23 1278.36 420C1294.74 487.89 1307.52 505.52 1300.38 560C1298.34 575.52 1280.19 560 1260 560C1222.5 560 1189.84 583.6 1185 560C1175.48 513.6 1201.73 485.93 1231.28 420" stroke="rgba(80, 49, 129, 0.34)" stroke-width="2"></path><path d="M1510.75 420C1510.75 398.58 1532.01 376.44 1540 376.44C1546.63 376.44 1540 398.22 1540 420C1540 439.6 1546.51 459.2 1540 459.2C1531.88 459.2 1510.75 439.96 1510.75 420" stroke="rgba(80, 49, 129, 0.34)" stroke-width="2"></path></g><defs><mask id="SvgjsMask5796"><rect width="1440" height="560" fill="#ffffff"></rect></mask><linearGradient x1="84.72%" y1="-39.29%" x2="15.28%" y2="139.29%" gradientUnits="userSpaceOnUse" id="SvgjsLinearGradient5797"><stop stop-color="rgba(255, 250, 222, 1)" offset="0.24"></stop><stop stop-color="rgba(251, 234, 255, 1)" offset="0.67"></stop></linearGradient></defs></svg>