<svg xmlns="http://www.w3.org/2000/svg" version="1.1" xmlns:xlink="http://www.w3.org/1999/xlink" xmlns:svgjs="http://svgjs.com/svgjs" width="2400" height="2400" preserveAspectRatio="none" viewBox="0 0 2400 2400"><g mask="url(&quot;#SvgjsMask2156&quot;)" fill="none"><rect width="2400" height="2400" x="0" y="0" fill="url(#SvgjsLinearGradient2157)"></rect><path d="M1200 464.52C1094.48 464.52 990 520.62 990 600C990 695.14 1094.1 813.56 1200 813.56C1307.72 813.56 1417.24 694.83 1417.24 600C1417.24 520.31 1308.1 464.52 1200 464.52" stroke="rgba(80, 49, 129, 0.24)" stroke-width="2"></path><path d="M1714.29 0C1788.86 18.26 1753.86 146.94 1800 146.94C1848.89 146.94 1824.35 19.59 1904.35 0C2124.35 -53.88 2287.89 -135.71 2400 0C2535.71 164.29 2400 300 2400 600C2400 829.16 2529.76 967.74 2400 1058.33C2229.76 1177.18 2073.46 969.06 1800 1018.87C1684.57 1039.89 1622.22 1107.69 1622.22 1200C1622.22 1296.22 1681.38 1374.9 1800 1395.92C2070.27 1443.82 2230.19 1223.48 2400 1337.84C2530.19 1425.52 2400 1568.92 2400 1800C2400 2100 2550 2250 2400 2400C2250 2550 2100 2400 1800 2400C1500 2400 1500 2400 1200 2400C900 2400 900 2400 600 2400C300 2400 150 2550 0 2400C-150 2250 0 2100 0 1800C0 1582.76 -83.86 1533.25 0 1365.52C66.14 1233.25 300 1322.92 300 1200C300 991.88 127.3 958.05 0 703.45C-22.7 658.05 0 651.72 0 600C0 300 -150 150 0 0C150 -150 300 0 600 0C900 0 900 0 1200 0C1457.14 0 1488.86 -55.21 1714.29 0" stroke="rgba(80, 49, 129, 0.24)" stroke-width="2"></path><path d="M352.94 600C208.6 358.37 138.51 391.02 0 155.56C-37.96 91.02 -61.77 16.01 0 0C238.23 -61.77 300 0 600 0C900 0 900 0 1200 0C1367.86 0 1535.71 -64.58 1535.71 0C1535.71 87.03 1380.02 167.49 1200 303.23C982.16 467.49 886.02 391.49 740 600C586.02 819.87 693.93 1160 600 1160C500.4 1160 508.6 860.59 352.94 600" stroke="rgba(80, 49, 129, 0.24)" stroke-width="2"></path><path d="M1675.86 600C1675.86 527.74 1742.67 530.21 1800 453.06C1965.61 230.21 1921.84 150.94 2121.74 0C2221.84 -75.59 2355.92 -95.05 2400 0C2495.05 204.95 2400 300 2400 600C2400 725 2487.13 830.27 2400 850C2187.13 898.2 2078.24 831.91 1800 735.85C1716.17 706.91 1675.86 669.13 1675.86 600" stroke="rgba(80, 49, 129, 0.24)" stroke-width="2"></path><path d="M642.86 1200C917.75 1125.69 938.6 1067.8 1200 1067.8C1289.39 1067.8 1277.21 1128.93 1344.44 1200C1577.21 1446.05 1524.62 1613.2 1800 1702.04C2052.4 1783.47 2188.37 1505.99 2400 1540.54C2488.37 1554.97 2400 1670.27 2400 1800C2400 2100 2550 2250 2400 2400C2250 2550 2100 2400 1800 2400C1500 2400 1500 2400 1200 2400C982.26 2400 935.72 2480.84 764.52 2400C635.72 2339.18 727.18 2119.23 600 2116.67C344.92 2111.54 158.76 2468.41 0 2384.62C-141.24 2310.07 0 2092.31 0 1800C0 1668.97 -83.95 1617.69 0 1537.93C216.05 1332.69 301.71 1386.8 600 1230C623.14 1217.84 617.75 1206.79 642.86 1200" stroke="rgba(80, 49, 129, 0.24)" stroke-width="2"></path><path d="M600 336C426.04 307.37 337.5 103.98 337.5 0C337.5 -64.02 468.75 0 600 0C900 0 900 0 1200 0C1278.57 0 1357.14 -30.23 1357.14 0C1357.14 40.74 1295.17 99.71 1200 141.94C916.6 267.71 857.29 378.34 600 336" stroke="rgba(80, 49, 129, 0.24)" stroke-width="2"></path><path d="M2233.33 600C2209.59 349.74 2263.36 272.75 2339.13 0C2346.7 -27.25 2397.2 -27.63 2400 0C2427.63 272.37 2400 300 2400 600C2400 620.84 2416.27 641.67 2400 641.67C2332.93 641.67 2240.02 670.57 2233.33 600" stroke="rgba(80, 49, 129, 0.24)" stroke-width="2"></path><path d="M0 1710.34C169.17 1710.34 410.53 1730.6 410.53 1800C410.53 1875.43 142.75 2000 0 2000C-62.52 2000 0 1900 0 1800C0 1755.17 -36.1 1710.34 0 1710.34" stroke="rgba(80, 49, 129, 0.24)" stroke-width="2"></path><path d="M738.46 1800C784.43 1568.41 985.72 1425 1200 1425C1378.65 1425 1363.53 1611.33 1524.32 1800C1663.53 1963.35 1642.76 1985.54 1800 2129.03C1971.51 2285.54 2181.82 2325.37 2181.82 2400C2181.82 2460.86 1990.91 2400 1800 2400C1500 2400 1500 2400 1200 2400C1103.22 2400 1058.96 2468.26 1006.45 2400C828.19 2168.26 687.66 2055.91 738.46 1800" stroke="rgba(80, 49, 129, 0.24)" stroke-width="2"></path><path d="M2225 1800C2225 1739.75 2333.13 1743.24 2400 1743.24C2420.63 1743.24 2400 1771.62 2400 1800C2400 1940 2440.15 2080 2400 2080C2352.65 2080 2225 1908.13 2225 1800" stroke="rgba(80, 49, 129, 0.24)" stroke-width="2"></path></g><defs><mask id="SvgjsMask2156"><rect width="2400" height="2400" fill="#ffffff"></rect></mask><linearGradient x1="100%" y1="50%" x2="0%" y2="50%" gradientUnits="userSpaceOnUse" id="SvgjsLinearGradient2157"><stop stop-color="rgba(248, 240, 192, 0.81)" offset="0.12"></stop><stop stop-color="rgba(251, 234, 255, 1)" offset="0.64"></stop></linearGradient></defs></svg>