<svg xmlns="http://www.w3.org/2000/svg" version="1.1" xmlns:xlink="http://www.w3.org/1999/xlink" xmlns:svgjs="http://svgjs.com/svgjs" width="1440" height="560" preserveAspectRatio="none" viewBox="0 0 1440 560"><g mask="url(&quot;#SvgjsMask5794&quot;)" fill="none"><rect width="1440" height="560" x="0" y="0" fill="url(#SvgjsLinearGradient5795)"></rect><path d="M140 11.2C79.34 11.2 5.83 92.89 5.83 140C5.83 175.18 73.99 175.78 140 175.78C185.79 175.78 229.44 171.32 229.44 140C229.44 89.03 191.14 11.2 140 11.2" stroke="rgba(80, 49, 129, 1)" stroke-width="2"></path><path d="M420 92.62C381.69 92.62 333.05 104.32 332 140C330.29 198.01 372.52 210.55 414.47 280C416.52 283.39 416.94 285.68 420 285.68C423.91 285.68 427.31 284.85 428.4 280C443.69 212.01 455.76 206.66 452.77 140C451.56 112.97 442.08 92.62 420 92.62" stroke="rgba(80, 49, 129, 1)" stroke-width="2"></path><path d="M672 0C710.09 39.14 682.83 70.54 696.22 140C696.83 143.14 697.79 145.19 700 145.19C702.79 145.19 704.7 143.73 706.22 140C734.39 71.13 715.91 45.51 759.39 0C782.8 -24.49 799.69 0 840 0C910 0 910 0 980 0C1049.01 0 1050.01 -1.7 1118.03 0C1120.01 0.05 1118.8 3.5 1120 3.5C1121.45 3.5 1120.94 0.06 1123.33 0C1190.94 -1.69 1191.66 0 1260 0C1330 0 1330 0 1400 0C1470 0 1505 -35 1540 0C1575 35 1540 70 1540 140C1540 163.33 1548.01 186.67 1540 186.67C1529.86 186.67 1527.5 156.29 1503.7 140C1457.5 108.39 1454.87 100.86 1400 90.88C1333.02 78.7 1323.86 78.79 1260 95.67C1230.93 103.35 1214.14 119.1 1214.14 140C1214.14 159 1238.03 156.58 1260 175.47C1319.46 226.58 1321.4 225.18 1377.01 280C1391.4 294.19 1385.01 299.98 1400 313.48C1462.72 369.98 1504.37 353.06 1532.43 420C1556.04 476.32 1541.77 519.36 1503.33 560C1475.55 589.36 1451.66 560 1400 560C1330 560 1330 560 1260 560C1190 560 1190 560 1120 560C1050 560 1050 560 980 560C910 560 910 560 840 560C770 560 770 560 700 560C630 560 630 560 560 560C490 560 490 560 420 560C350 560 350 560 280 560C227.5 560 225.11 568.11 175 560C155.11 556.78 158.62 537.35 140 537.35C112.6 537.35 112.73 555.18 82.96 560C42.73 566.51 15.43 586.05 0 560C-26.05 516.05 0 490 0 420C0 350 0 350 0 280C0 210 0 210 0 140C0 70 -35 35 0 0C35 -35 70 0 140 0C210 0 210 0 280 0C350 0 350 0 420 0C490 0 490 0 560 0C616 0 641.98 -30.86 672 0" stroke="rgba(80, 49, 129, 1)" stroke-width="2"></path><path d="M980 136.11C976.85 136.11 973.78 136.75 973.78 140C973.78 152.7 976.75 168 980 168C983.27 168 986.83 152.53 986.83 140C986.83 136.58 983.37 136.11 980 136.11" stroke="rgba(80, 49, 129, 1)" stroke-width="2"></path><path d="M560 395.44C546.12 398.2 542.72 407.65 542.72 420C542.72 432.65 546.04 440.79 560 445.45C624.68 467.04 638.42 481.19 700 472.5C728.61 468.46 740.38 443.66 740.38 420C740.38 401.74 724.1 391.94 700 388.66C633.91 379.66 624.76 382.53 560 395.44" stroke="rgba(80, 49, 129, 1)" stroke-width="2"></path><path d="M1260 395.29C1248.22 395.29 1240 408.17 1240 420C1240 430.53 1248.62 440 1260 440C1276.49 440 1295.74 430.85 1295.74 420C1295.74 408.49 1276.09 395.29 1260 395.29" stroke="rgba(80, 49, 129, 1)" stroke-width="2"></path><path d="M72.92 0C72.92 20.83 21.45 71.43 0 71.43C-15.01 71.43 -18.04 17.67 0 0C18.42 -18.04 72.92 -14.88 72.92 0" stroke="rgba(80, 49, 129, 1)" stroke-width="2"></path><path d="M280 112C223.52 102.67 185.35 34.03 185.35 0C185.35 -21.97 232.67 0 280 0C350 0 350 0 420 0C490 0 490 0 560 0C591 0 608.52 -21.22 622 0C652.98 48.78 624.66 74.69 648.92 140C663.66 179.69 670.14 210 700 210C737.68 210 750.48 181.9 784 140C820.48 94.4 812.65 87.83 840 35C848.89 17.83 839.78 4.17 856.47 0C909.78 -13.33 918.24 0 980 0C1024.37 0 1036.58 -20.9 1068.73 0C1106.58 24.6 1092.91 46.41 1120 91C1135.44 116.41 1153.79 113.58 1153.79 140C1153.79 180.69 1139.75 225.22 1120 225.22C1098.95 225.22 1105.76 173.01 1072.2 140C1035.76 104.15 1025.56 87.5 980 87.5C937.46 87.5 907.33 100.6 896 140C879.66 196.85 898.8 215.36 924.65 280C940.8 320.36 943.23 345.77 980 350C1040.91 357.02 1052.04 330.24 1120 302.5C1137.79 295.24 1134.74 289.62 1151.5 280C1204.74 249.44 1209.23 222.13 1260 222.13C1295.87 222.13 1324.78 250.27 1324.78 280C1324.78 311.12 1290.43 310.13 1260 343.82C1227.2 380.13 1198.33 383.53 1198.33 420C1198.33 452.45 1224.89 481.67 1260 481.67C1310.83 481.67 1317.86 454.44 1370.21 420C1387.86 408.39 1384.2 389.57 1400 389.57C1418.02 389.57 1435.28 398.19 1437.84 420C1445.28 483.4 1436.57 498.69 1420 560C1417.65 568.69 1410 560 1400 560C1330 560 1330 560 1260 560C1196.73 560 1194.31 565.85 1133.46 560C1124.31 559.12 1128.41 550.87 1120 546.54C1051.68 511.38 1045.72 477.33 980 481.03C926.04 484.06 933.67 530.09 880.65 560C863.67 569.58 860.33 560 840 560C770 560 707.14 590.95 700 560C690.99 520.95 807.69 483.09 807.69 420C807.69 371.3 761.09 357.62 700 336.42C637.25 314.64 617.26 310.17 560 334.04C517.02 351.96 499.51 376.77 499.51 420C499.51 464.29 517.94 479.72 560 509.09C618.18 549.72 700 546.88 700 560C700 572.33 630 560 560 560C499.13 560 498.31 563.68 438.26 560C428.31 559.39 429.6 551.43 420 551.43C401.38 551.43 401.25 558.81 381.82 560C331.25 563.1 330.91 560 280 560C267.27 560 265.55 565.83 254.55 560C195.55 528.77 200.99 491.92 140 485.88C73.71 479.32 39.46 553.37 0 534.8C-30.54 520.43 0 477.4 0 420C0 350 0 350 0 280C0 236.25 -26.72 204.97 0 192.5C43.28 172.3 71.41 220.67 140 214.67C211.41 208.42 221.94 151.39 280 168C336.15 184.06 322.31 225.67 368.42 280C392.31 308.15 391.49 332.97 420 332.97C456.48 332.97 484.3 318.87 498.4 280C519.3 222.38 510.88 204.24 490 140C471.68 83.63 465.98 44.9 420 38.77C360.98 30.9 340.85 122.05 280 112" stroke="rgba(80, 49, 129, 1)" stroke-width="2"></path><path d="M1260 37.33C1229.35 32.66 1206.67 10.26 1206.67 0C1206.67 -8.41 1233.34 0 1260 0C1330 0 1330 0 1400 0C1433.6 0 1467.2 -7.04 1467.2 0C1467.2 7.69 1435.59 23.06 1400 29.47C1331.99 41.72 1326.02 47.39 1260 37.33" stroke="rgba(80, 49, 129, 1)" stroke-width="2"></path><path d="M280 53.67C251.81 53.67 234.65 16.31 234.65 0C234.65 -10.53 257.33 0 280 0C333.66 0 387.33 -12.67 387.33 0C387.33 14.17 328.15 53.67 280 53.67" stroke="rgba(80, 49, 129, 1)" stroke-width="2"></path><path d="M527.23 140C510.12 70.29 484.08 48.27 495.38 0C500.47 -21.73 527.69 0 560 0C566 0 570.39 -5.42 572 0C591.2 64.58 604.76 71.05 601.62 140C598.76 202.65 578.78 263.2 560 263.2C541.59 263.2 542.43 201.89 527.23 140" stroke="rgba(80, 49, 129, 1)" stroke-width="2"></path><path d="M980 38.89C954.13 38.89 925.1 10.71 925.1 0C925.1 -8.74 952.55 0 980 0C999.72 0 1019.44 -8.09 1019.44 0C1019.44 11.36 1001.3 38.89 980 38.89" stroke="rgba(80, 49, 129, 1)" stroke-width="2"></path><path d="M0 247.19C56.72 236.48 70.61 258.73 140 253.56C210.61 248.3 218.37 217.39 280 226.33C309.55 230.61 322.37 251.85 322.37 280C322.37 313.69 309.17 322.72 280 350C234.32 392.72 227.41 386.99 172.67 420C157.41 429.2 157.23 429.94 140 434.41C70.89 452.34 53.32 470.29 0 464.8C-16.68 463.08 0 442.4 0 420C0 350 0 350 0 280C0 263.6 -13.28 249.7 0 247.19" stroke="rgba(80, 49, 129, 1)" stroke-width="2"></path><path d="M644 280C644 277.66 671.99 277.31 700 274.81C769.99 268.56 776.42 260.2 840 262.5C848.05 262.79 843.26 271.36 843.26 280C843.26 285.11 845 289.85 840 290C773.37 291.94 769.96 287.75 700 284.18C671.96 282.75 644 282.34 644 280" stroke="rgba(80, 49, 129, 1)" stroke-width="2"></path><path d="M1239 280C1239 274.18 1250.17 268.8 1260 268.8C1266.94 268.8 1272.54 274.25 1272.54 280C1272.54 286.02 1267.03 292.35 1260 292.35C1250.26 292.35 1239 285.96 1239 280" stroke="rgba(80, 49, 129, 1)" stroke-width="2"></path><path d="M353.18 420C353.18 396.86 389.53 380.27 420 380.27C441.09 380.27 456.3 398.35 456.3 420C456.3 448.21 442.61 480 420 480C391.05 480 353.18 446.73 353.18 420" stroke="rgba(80, 49, 129, 1)" stroke-width="2"></path><path d="M1017.33 420C1017.33 391.69 1075.55 365 1120 365C1145.22 365 1156.67 392.19 1156.67 420C1156.67 449.31 1145.79 479.23 1120 479.23C1076.12 479.23 1017.33 448.81 1017.33 420" stroke="rgba(80, 49, 129, 1)" stroke-width="2"></path><path d="M1200.77 560C1200.77 550.09 1229.47 523.33 1260 523.33C1296.64 523.33 1335.12 550.34 1335.12 560C1335.12 568.68 1297.56 560 1260 560C1230.39 560 1200.77 568.43 1200.77 560" stroke="rgba(80, 49, 129, 1)" stroke-width="2"></path></g><defs><mask id="SvgjsMask5794"><rect width="1440" height="560" fill="#ffffff"></rect></mask><linearGradient x1="84.72%" y1="-39.29%" x2="15.28%" y2="139.29%" gradientUnits="userSpaceOnUse" id="SvgjsLinearGradient5795"><stop stop-color="rgba(255, 250, 222, 1)" offset="0.24"></stop><stop stop-color="rgba(251, 234, 255, 1)" offset="0.67"></stop></linearGradient></defs></svg>